# AST/ASF file generated using VICON BodyLanguage
# -----------------------------------------------
:version 1.10
:name VICON
:units
  mass 1.0
  length 0.45
  angle deg
:documentation
   .ast/.asf automatically generated from VICON data using
   VICON BodyBuilder and BodyLanguage model FoxedUp or BRILLIANT.MOD
:root
   order TX TY TZ RX RY RZ
   axis XYZ
   position 0 0 0  
   orientation 0 0 0 
:bonedata
  begin
     id 1 
     name lhipjoint
     direction 0.653368 -0.678499 0.335782 
     length 2.51848 
     axis 0 0 0  XYZ
  end
  begin
     id 2 
     name lfemur
     direction 0.34202 -0.939693 0  
     length 6.57749  
     axis 0 0 20  XYZ
    dof rx ry rz
    limits (-160.0 20.0)
           (-70.0 70.0)
           (-60.0 70.0)
  end
  begin
     id 3 
     name ltibia
     direction 0.34202 -0.939693 0   
     length 7.94618   
     axis 0 0 20   XYZ
    dof rx
    limits (-10.0 170.0)
  end
  begin
     id 4 
     name lfoot
     direction 0.0811271 -0.222895 0.971461   
     length 2.31339   
     axis -90 7.62852e-016 20   XYZ
    dof rx rz
    limits (-45.0 90.0)
           (-70.0 20.0)
  end
  begin
     id 5 
     name ltoes
     direction 1.53568e-011 -4.21885e-011 1   
     length 1.15935   
     axis -90 7.62852e-016 20   XYZ
    dof rx
    limits (-90.0 20.0)
  end
  begin
     id 6 
     name rhipjoint
     direction -0.640058 -0.688614 0.340788   
     length 2.48149  
     axis 0 0 0  XYZ 
  end
  begin
     id 7 
     name rfemur
     direction -0.34202 -0.939693 0   
     length 6.57875   
     axis 0 0 -20   XYZ
    dof rx ry rz
    limits (-160.0 20.0)
           (-70.0 70.0)
           (-70.0 60.0)
  end
  begin
     id 8 
     name rtibia
     direction -0.34202 -0.939693 0   
     length 7.977   
     axis 0 0 -20   XYZ
    dof rx
    limits (-10.0 170.0)
 end
 begin
     id 9 
     name rfoot
     direction -0.0979793 -0.269196 0.958089   
     length 2.19857  
     axis -90 -7.62852e-016 -20   XYZ
    dof rx rz
    limits (-45.0 90.0)
           (-20.0 70.0)
  end
  begin
     id 10 
     name rtoes
     direction -1.53556e-011 -4.21868e-011 1   
     length 1.09838   
     axis -90 -7.62852e-016 -20   XYZ
    dof rx
    limits (-90.0 20.0)
  end
  begin
     id 11 
     name lowerback
     direction 0.0149039 0.998517 -0.0523597   
     length 2.10809   
     axis 0 0 0   XYZ
    dof rx ry rz
    limits (-20.0 45.0)
           (-30.0 30.0)
           (-30.0 30.0)
  end
  begin
     id 12 
     name upperback
     direction -0.00882659 0.999418 -0.0329624   
     length 2.1102   
     axis 0 0 0   XYZ
    dof rx ry rz
    limits (-20.0 45.0)
           (-30.0 30.0)
           (-30.0 30.0)
  end
  begin
     id 13 
     name thorax
     direction -0.0165585 0.999826 -0.0085833   
     length 2.11039   
     axis 0 0 0   XYZ
    dof rx ry rz
    limits (-20.0 45.0)
           (-30.0 30.0)
           (-30.0 30.0)
  end
  begin
     id 14 
     name lowerneck
     direction -0.0130877 0.999911 0.00260353   
     length 1.73253   
     axis 0 0 0   XYZ
    dof rx ry rz
    limits (-20.0 45.0)
           (-30.0 30.0)
           (-30.0 30.0)
  end
  begin
     id 15 
     name upperneck
     direction -0.0348454 0.928205 -0.370435   
     length 1.66692   
     axis 0 0 0   XYZ
    dof rx ry rz
    limits (-20.0 45.0)
           (-30.0 30.0)
           (-30.0 30.0)
  end
  begin
     id 16
     name head
     direction -0.00807754 0.992494 -0.122026  
     length 1.72765  
     axis 0 0 0   XYZ
    dof rx ry rz
    limits (-20.0 45.0)
           (-30.0 30.0)
           (-30.0 30.0)
  end
  begin
     id 17 
     name lclavicle
     direction 0.987582 0.144023 0.0627671  
     length 3.49235  
     axis 0 0 0   XYZ
    dof ry rz
    limits (-20.0 10.0)
           (0.0 20.0)
  end
  begin
     id 18 
     name lhumerus
     direction 1 -4.48958e-011 -1.45183e-018   
     length 5.41917   
     axis 180 -30 -90   XYZ
    dof rx ry rz
    limits (-60.0 90.0)
           (-90.0 90.0)
           (-90.0 90.0)
  end
  begin
     id 19
     name lradius
     direction 1 -4.48999e-011 5.75106e-027   
     length 2.44373   
     axis 180 -30 -90   XYZ
    dof rx
    limits (-10.0 170.0)
  end
  begin
     id 20
     name lwrist
     direction 1 -4.48987e-011 1.53461e-026   
     length 1.22186   
     axis -1.09697e-014 90 90   XYZ
    dof ry
    limits (-180.0 0.0)
 end
  begin
     id 21 
     name lhand
     direction 1 -4.48881e-011 3.06923e-026   
     length 0.727502   
     axis -1.95843e-014 90 90   XYZ
    dof rx rz
    limits (-90.0 90.0)
           (-45.0 45.0)
  end
  begin
     id 22 
     name lfingers
     direction 1 -4.48907e-011 6.13845e-026   
     length 0.586531   
     axis -3.91686e-014 90 90   XYZ
    dof rx
    limits (0.0 90.0)
  end
  begin
     id 23
     name lthumb
     direction 0.707107 -6.3487e-011 0.707107   
     length 0.842145   
     axis -90 45 2.85299e-015   XYZ
    dof rx rz
    limits (-45.0 45.0)
           (-45.0 45.0)
  end
  begin
     id 24 
     name rclavicle
     direction -0.980998 0.169556 0.0943023   
     length 3.29272  
     axis 0 0 0   XYZ 
    dof ry rz
    limits (-10.0 20.0)
           (-20.0 0.0)
  end
  begin
     id 25 
     name rhumerus
     direction -1 -1.83355e-005 2.45537e-005  
     length 5.58976   
     axis 180 30 90   XYZ
    dof rx ry rz
    limits (-90.0 60.0)
           (-90.0 90.0)
           (-90.0 90.0)
  end
  begin
     id 26 
     name rradius
     direction -1 -4.48967e-011 5.97228e-027   
     length 2.4806   
     axis 180 30 90   XYZ
    dof rx
    limits (-10.0 170.0)
  end
  begin
     id 27 
     name rwrist
     direction -1 -4.48963e-011 1.53461e-026   
     length 1.2403   
     axis -1.09697e-014 -90 -90   XYZ
    dof ry
    limits (-180.0 0.0)
  end
  begin
     id 28
     name rhand
     direction -1 -4.48881e-011 3.06923e-026   
     length 0.816009   
     axis -1.95843e-014 -90 -90   XYZ
    dof rx rz
    limits (-90.0 90.0)
           (-45.0 45.0)
  end
  begin
     id 29
     name rfingers
     direction -1 -4.49018e-011 6.13845e-026   
     length 0.657887   
     axis -3.91686e-014 -90 -90   XYZ
    dof rx
    limits (0.0 90.0)
  end
  begin
     id 30
     name rthumb
     direction -0.707107 -6.34872e-011 0.707107   
     length 0.944599   
     axis -90 -45 -2.85299e-015   XYZ
    dof rx rz
    limits (-45.0 45.0)
           (-45.0 45.0)
  end
:hierarchy
  begin
    root lhipjoint rhipjoint lowerback
    lhipjoint lfemur
    lfemur ltibia
    ltibia lfoot
    lfoot ltoes
    rhipjoint rfemur
    rfemur rtibia
    rtibia rfoot
    rfoot rtoes
    lowerback upperback
    upperback thorax
    thorax lowerneck lclavicle rclavicle
    lowerneck upperneck
    upperneck head
    lclavicle lhumerus
    lhumerus lradius
    lradius lwrist
    lwrist lhand lthumb
    lhand lfingers
    rclavicle rhumerus
    rhumerus rradius
    rradius rwrist
    rwrist rhand rthumb
    rhand rfingers
  end

#!OML:ASF F:\VICON\USERDATA\INSTALL\rory3\rory3.ASF
:FULLY-SPECIFIED
:DEGREES
29
root 4.63799 16.3749 27.625 26.8304 -49.7303 -5.58189
lowerback -15.9824 1.79207 -2.21481
upperback -7.67571 2.44272 0.560847
thorax 0.680171 1.19832 2.22755
lowerneck -10.5809 -1.39574 -0.0175419
upperneck 41.6704 -4.32256 2.29697
head 17.0051 -1.84929 0.197919
rclavicle -1.06269e-013 -2.10712e-014
rhumerus -129.928 -35.6746 72.6345
rradius 0.503133
rwrist 134.523
rhand 13.7865 11.5346
rfingers 7.12502
rthumb 38.7082 -14.0684
lclavicle -1.06269e-013 -2.10712e-014
lhumerus -41.1306 10.0277 68.4553
lradius 22.0797
lwrist -13.6533
lhand 28.5406 19.148
lfingers 7.12502
lthumb 52.3902 39.0189
rfemur -29.8173 -17.6149 33.4987
rtibia 56.8776
rfoot 39.9626 -30.9477
rtoes 43.0118
lfemur -48.5552 0.928226 -28.4306
ltibia 47.8077
lfoot -41.0529 23.4721
ltoes 17.3105
30
root 4.63962 16.3696 27.6299 26.4937 -49.9256 -5.26807
lowerback -16.0701 1.73644 -2.53501
upperback -7.63017 2.41809 0.525146
thorax 0.761794 1.19174 2.37088
lowerneck -10.6637 -1.3672 0.0791078
upperneck 41.6541 -4.24663 2.16003
head 17.0072 -1.81995 0.130351
rclavicle 2.19451e-014 -2.62396e-014
rhumerus -130.034 -36.0943 72.8034
rradius 0.868859
rwrist 134.365
rhand 13.5855 11.2655
rfingers 7.12502
rthumb 38.5186 -14.3907
lclavicle 2.19451e-014 -2.62396e-014
lhumerus -41.312 10.6643 68.036
lradius 22.1033
lwrist -14.0991
lhand 28.4635 19.138
lfingers 7.12502
lthumb 52.3204 39.0514
rfemur -29.7319 -17.8485 33.2659
rtibia 56.9108
rfoot 41.1571 -28.8764
rtoes 41.0223
lfemur -48.3885 1.00895 -28.7501
ltibia 47.776
lfoot -41.146 23.3159
ltoes 17.7115
31
root 4.64748 16.3707 27.6322 26.6395 -50.1871 -5.52639
lowerback -16.1254 1.81183 -2.40684
upperback -7.64504 2.49764 0.536536
thorax 0.776151 1.22759 2.32496
lowerneck -10.5668 -1.32061 -0.00729764
upperneck 41.7252 -4.17647 2.19815
head 17.0247 -1.8034 0.175503
rclavicle 1.93225e-014 -4.09496e-014
rhumerus -130.109 -36.4525 72.8655
rradius 1.14256
rwrist 134.228
rhand 13.3743 11.1471
rfingers 7.12502
rthumb 38.3193 -14.5646
lclavicle 1.93225e-014 -4.09496e-014
lhumerus -41.4884 10.9874 67.7682
lradius 22.1788
lwrist -14.219
lhand 28.5404 19.3965
lfingers 7.12502
lthumb 52.39 39.2676
rfemur -29.5975 -17.4506 33.1981
rtibia 56.9408
rfoot 39.3063 -31.5105
rtoes 43.6153
lfemur -48.3494 1.01889 -28.5894
ltibia 47.7694
lfoot -41.3617 23.4392
ltoes 18.0728
32
root 4.65489 16.3748 27.6288 26.8213 -50.3814 -5.6907
lowerback -16.2374 1.90832 -2.34242
upperback -7.67403 2.61606 0.491286
thorax 0.802794 1.28326 2.26376
lowerneck -10.3827 -1.33417 -0.158363
upperneck 41.6696 -4.228 2.38535
head 16.9584 -1.82784 0.28096
rclavicle -5.55285e-014 -4.41302e-014
rhumerus -130.127 -36.547 72.9822
rradius 1.08429
rwrist 134.023
rhand 13.3229 11.3137
rfingers 7.12502
rthumb 38.2708 -14.4113
lclavicle -5.55285e-014 -4.41302e-014
lhumerus -41.4323 10.9428 67.6758
lradius 22.0535
lwrist -14.06
lhand 28.4905 19.3923
lfingers 7.12502
lthumb 52.3448 39.2909
rfemur -29.6489 -17.0073 33.1176
rtibia 57.0984
rfoot 36.2982 -35.0753
rtoes 46.7477
lfemur -48.4186 1.06305 -28.4995
ltibia 47.7092
lfoot -41.442 23.5537
ltoes 17.9162
33
root 4.65859 16.3749 27.6354 26.8189 -50.6729 -5.69981
lowerback -16.3239 2.06132 -2.35798
upperback -7.67709 2.8222 0.415906
thorax 0.83652 1.3845 2.23002
lowerneck -10.4707 -1.35474 -0.189475
upperneck 41.6275 -4.25112 2.41296
head 16.9596 -1.83509 0.294553
rclavicle -2.29767e-014 -2.74323e-014
rhumerus -130.116 -36.5554 73.2313
rradius 1.04689
rwrist 134.049
rhand 13.3228 11.6642
rfingers 7.12502
rthumb 38.2706 -14.0608
lclavicle -2.29767e-014 -2.74323e-014
lhumerus -41.4887 11.1979 67.4918
lradius 21.9415
lwrist -14.4777
lhand 28.5012 19.2258
lfingers 7.12502
lthumb 52.3545 39.1186
rfemur -29.6819 -16.911 33.004
rtibia 57.1919
rfoot 36.6338 -34.7288
rtoes 46.452
lfemur -48.3651 1.15198 -28.5854
ltibia 47.6874
lfoot -41.6757 23.5039
ltoes 18.1308
34
root 4.68379 16.3669 27.6769 27.0245 -52.4226 -5.40491
lowerback -17.0604 2.61164 -2.46543
upperback -7.65067 3.57914 0.0226174
thorax 1.22567 1.74737 2.03868
lowerneck -10.9048 -1.32303 -0.016224
upperneck 41.6631 -4.21463 2.33135
head 17.0832 -1.79341 0.227167
rclavicle -4.93731e-014 -1.47101e-014
rhumerus -130.33 -36.7694 73.4581
rradius 1.11165
rwrist 134.114
rhand 13.2684 11.7604
rfingers 7.12502
rthumb 38.2193 -13.9788
lclavicle -4.93731e-014 -1.47101e-014
lhumerus -41.5222 11.9779 66.946
lradius 22.0166
lwrist -15.086
lhand 28.6829 19.2762
lfingers 7.12502
lthumb 52.519 39.0684
rfemur -30.327 -15.3138 32.2489
rtibia 57.3629
rfoot 37.4262 -34.458
rtoes 45.8624
lfemur -48.8358 1.00808 -28.9685
ltibia 47.6943
lfoot -43.105 24.0311
ltoes 19.3791
35
root 4.67635 16.3716 27.6999 27.5415 -52.5158 -6.1694
lowerback -17.3719 2.68904 -1.84351
upperback -7.51647 3.591 0.072579
thorax 1.56835 1.73407 1.76506
lowerneck -11.1675 -1.20336 0.0765689
upperneck 41.7617 -4.07748 2.35246
head 17.2032 -1.71599 0.239379
rclavicle 1.14387e-013 -8.74653e-015
rhumerus -130.582 -37.2669 73.4548
rradius 1.51218
rwrist 133.926
rhand 13.1998 11.8563
rfingers 7.12502
rthumb 38.1545 -13.9007
lclavicle 1.14387e-013 -8.74653e-015
lhumerus -41.6377 12.6531 66.3395
lradius 22.1006
lwrist -15.3514
lhand 28.8863 19.3578
lfingers 7.12502
lthumb 52.703 39.0364
rfemur -29.8707 -15.101 32.3274
rtibia 57.2082
rfoot 35.4384 -36.2698
rtoes 47.8225
lfemur -48.69 0.816254 -28.4089
ltibia 47.837
lfoot -43.6903 24.1105
ltoes 19.6226
